<svg width="10" height="10" viewBox="0 0 10 10" fill="none" xmlns="http://www.w3.org/2000/svg">
<g clip-path="url(#clip0)">
<path d="M5.01862 0C2.27061 0 -0.000915527 2.23242 -0.000915527 4.98047C-0.000915527 7.72852 2.27061 10 5.01862 10C7.76662 10 9.99908 7.72852 9.99908 4.98047C9.99908 2.23242 7.76662 0 5.01862 0Z" fill="#FEDB41"/>
<path d="M9.99908 4.98047C9.99908 7.72852 7.76662 10 5.01862 10V0C7.76662 0 9.99908 2.23242 9.99908 4.98047Z" fill="#FFCC33"/>
<path d="M5.01862 1.17188C2.92092 1.17188 1.17096 2.88279 1.17096 4.98047C1.17096 7.07814 2.92092 8.82812 5.01862 8.82812C7.11631 8.82812 8.82721 7.07814 8.82721 4.98047C8.82721 2.88279 7.11631 1.17188 5.01862 1.17188Z" fill="#FEA832"/>
<path d="M8.82721 4.98047C8.82721 7.07814 7.11631 8.82812 5.01862 8.82812V1.17188C7.11631 1.17188 8.82721 2.88279 8.82721 4.98047Z" fill="#FE9923"/>
<path d="M5.60455 4.6875H5.31158V3.51562H5.60455C5.76864 3.51562 5.89752 3.64451 5.89752 3.80859C5.89752 4.19529 6.48346 4.19529 6.48346 3.80859C6.48346 3.32225 6.09092 2.92969 5.60455 2.92969H5.31158V2.63672C5.31158 2.44334 5.1651 2.34375 5.01862 2.34375C4.87213 2.34375 4.72565 2.44334 4.72565 2.63672V2.92969H4.39362C3.90725 2.92969 3.51471 3.32225 3.51471 3.80859V4.39453C3.51471 4.88088 3.90725 5.27344 4.39362 5.27344H4.72565V6.48438H4.39362C4.22953 6.48438 4.10065 6.35549 4.10065 6.19141C4.10065 5.80471 3.51471 5.80471 3.51471 6.19141C3.51471 6.67775 3.90725 7.07031 4.39362 7.07031H4.72565V7.36328C4.72565 7.55666 4.87213 7.65625 5.01862 7.65625C5.1651 7.65625 5.31158 7.55666 5.31158 7.36328V7.07031H5.60455C6.09092 7.07031 6.48346 6.67775 6.48346 6.19141V5.56641C6.48346 5.08006 6.09092 4.6875 5.60455 4.6875ZM4.72565 4.6875H4.39362C4.22953 4.6875 4.10065 4.55861 4.10065 4.39453V3.80859C4.10065 3.64451 4.22953 3.51562 4.39362 3.51562H4.72565V4.6875ZM5.89752 6.19141C5.89752 6.35549 5.76864 6.48438 5.60455 6.48438H5.31158V5.27344H5.60455C5.76864 5.27344 5.89752 5.40232 5.89752 5.56641V6.19141Z" fill="#FEDB41"/>
<path d="M5.60455 4.6875H5.31158V3.51562H5.60455C5.76864 3.51562 5.89752 3.64451 5.89752 3.80859C5.89752 4.19529 6.48346 4.19529 6.48346 3.80859C6.48346 3.32225 6.09092 2.92969 5.60455 2.92969H5.31158V2.63672C5.31158 2.44334 5.1651 2.34375 5.01862 2.34375V7.65625C5.1651 7.65625 5.31158 7.55666 5.31158 7.36328V7.07031H5.60455C6.09092 7.07031 6.48346 6.67775 6.48346 6.19141V5.56641C6.48346 5.08006 6.09092 4.6875 5.60455 4.6875ZM5.89752 6.19141C5.89752 6.35549 5.76864 6.48438 5.60455 6.48438H5.31158V5.27344H5.60455C5.76864 5.27344 5.89752 5.40232 5.89752 5.56641V6.19141Z" fill="#FFCC33"/>
</g>
<defs>
<clipPath id="clip0">
<rect width="10" height="10" fill="white" transform="translate(-0.000915527)"/>
</clipPath>
</defs>
</svg>
