<svg width="30" height="34" viewBox="0 0 30 34" fill="none" xmlns="http://www.w3.org/2000/svg">
<g clip-path="url(#clip0)">
<path d="M25.6066 5.26175C22.7735 2.13244 19.0066 0.409088 15 0.409088C10.9934 0.409088 7.22648 2.13244 4.39336 5.26175C1.56029 8.39107 0 12.5518 0 16.9773C0 21.4028 1.56029 25.5635 4.39336 28.6928C7.22648 31.8221 10.9934 33.5455 15 33.5455C19.0066 33.5455 22.7735 31.8221 25.6066 28.6928C28.4397 25.5635 30 21.4028 30 16.9773C30 12.5518 28.4397 8.39107 25.6066 5.26175ZM15 31.6039C7.69822 31.6039 1.75781 25.0424 1.75781 16.9773C1.75781 8.91213 7.69822 2.35067 15 2.35067C22.3018 2.35067 28.2422 8.91213 28.2422 16.9773C28.2422 25.0424 22.3018 31.6039 15 31.6039Z" fill="black"/>
<path d="M15.9414 16.0065H14.0585C12.9859 16.0065 12.1132 15.0426 12.1132 13.8579C12.1132 12.673 12.9859 11.7092 14.0585 11.7092H17.8242C18.3096 11.7092 18.7031 11.2745 18.7031 10.7384C18.7031 10.2022 18.3096 9.76759 17.8242 9.76759H15.8789V7.6189C15.8789 7.08277 15.4854 6.64811 15 6.64811C14.5146 6.64811 14.1211 7.08277 14.1211 7.6189V9.76759H14.0586C12.0167 9.76759 10.3555 11.6025 10.3555 13.8579C10.3555 16.1132 12.0167 17.9481 14.0586 17.9481H15.9415C17.0141 17.9481 17.8867 18.912 17.8867 20.0967C17.8867 21.2815 17.0141 22.2454 15.9415 22.2454H12.1758C11.6904 22.2454 11.2969 22.6801 11.2969 23.2162C11.2969 23.7524 11.6904 24.187 12.1758 24.187H14.1211V26.3358C14.1211 26.8719 14.5146 27.3066 15 27.3066C15.4854 27.3066 15.8789 26.8719 15.8789 26.3358V24.187H15.9414C17.9833 24.187 19.6445 22.3521 19.6445 20.0967C19.6445 17.8414 17.9833 16.0065 15.9414 16.0065Z" fill="black"/>
</g>
<defs>
<clipPath id="clip0">
<rect width="30" height="33.1364" fill="white" transform="translate(0 0.409088)"/>
</clipPath>
</defs>
</svg>
