<svg width="30" height="33" viewBox="0 0 30 33" fill="none" xmlns="http://www.w3.org/2000/svg">
<g clip-path="url(#clip0)">
<path d="M19.6773 20.7856C20.594 19.6826 21.2816 18.3008 21.709 16.9967C22.353 16.6138 22.8607 15.8618 23.0637 14.9768C23.2455 14.1726 23.6584 12.3676 22.7688 11.5113V10.5369C22.8268 8.37445 22.6131 5.37697 20.1628 4.06756C20.0438 3.64847 20.0245 3.32191 20.0245 3.29745L19.7257 0L17.5732 2.2295C17.3034 2.51138 15.526 3.01025 13.8096 3.19959L13.1492 3.3134C8.48728 4.11968 8.55691 6.95974 8.6188 9.46686C8.62847 9.78916 8.63717 10.1295 8.63717 10.5061L8.66038 11.3847C8.18075 11.8878 7.80846 12.8994 8.26004 14.9289C8.45634 15.8054 8.98142 16.5553 9.60996 16.8797C9.92134 17.7775 10.6031 19.4347 11.719 20.7899C10.9638 21.0366 10.2385 21.3462 9.55291 21.7227C9.0288 19.9325 7.51836 18.6274 5.71782 18.6274C3.486 18.6274 1.66998 20.6239 1.66998 23.08C1.66998 24.9798 2.76365 26.5955 4.29053 27.2284C3.51887 28.8218 3.07406 30.5918 3.07406 32.4692V33.0011H28.33V32.4692C28.3329 27.0306 24.697 22.4152 19.6773 20.7856ZM22.208 31.9363V29.2356C22.208 28.9409 21.9894 28.7037 21.7245 28.7037C21.4576 28.7037 21.241 28.9409 21.241 29.2356V31.9363H10.1679V29.2356C10.1679 28.9409 9.95035 28.7037 9.68442 28.7037C9.4185 28.7037 9.20093 28.9409 9.20093 29.2356V31.9363H4.05846C4.13582 30.3376 4.56709 28.8346 5.2672 27.4784C5.41708 27.4986 5.566 27.5316 5.72072 27.5316C7.95351 27.5316 9.76952 25.535 9.76952 23.0779C9.76952 23.0109 9.75308 22.9449 9.74921 22.8779L15.3491 29.8706C15.4409 29.9823 15.5715 30.0514 15.7117 30.0514C15.7117 30.0514 15.7136 30.0514 15.7156 30.0514C15.8558 30.0493 15.9873 29.9855 16.0782 29.8642L21.5958 22.7737C24.8933 24.6458 27.1657 28.0262 27.3543 31.9331H22.2099L22.208 31.9363ZM5.71975 19.6911C7.1509 19.6911 8.34804 20.7771 8.69035 22.2365C8.73387 22.4194 8.75804 22.6088 8.77352 22.7992C8.78125 22.8928 8.79866 22.9821 8.79866 23.08C8.79866 23.2045 8.77738 23.3236 8.76481 23.4459C8.60236 25.0851 7.38491 26.3689 5.8706 26.4519C5.81838 26.454 5.77003 26.4689 5.71975 26.4689C5.57567 26.4689 5.43642 26.4445 5.29621 26.4211C5.12408 26.3966 4.95679 26.3551 4.79434 26.2987C3.54982 25.8626 2.63891 24.5926 2.63891 23.0832C2.63988 21.209 4.02171 19.6911 5.71975 19.6911ZM10.3633 16.0405L10.1312 15.9639C9.73084 15.8309 9.34114 15.2885 9.20286 14.6758C8.90599 13.3398 8.98529 12.3931 9.4243 12.075L9.64671 11.9144L9.60803 10.4933C9.60803 10.12 9.59933 9.76895 9.58966 9.43814C9.52874 6.9757 9.47942 5.02807 13.3029 4.36539L13.9353 4.25477C14.8337 4.15691 17.5519 3.71654 18.2375 3.006L18.9569 2.25822L19.0585 3.38148C19.0614 3.44424 19.0942 3.99736 19.3205 4.64515L19.393 4.85363L19.5797 4.94298C21.6529 5.92902 21.856 8.43295 21.7989 10.5189V12.0931L22.0474 12.2452C22.6093 12.592 22.2437 14.1918 22.1229 14.7173C21.9768 15.3629 21.5852 15.9139 21.1317 16.1192L20.9277 16.2107L20.859 16.4415C20.4248 17.8605 19.6541 19.4124 18.5982 20.491C18.4473 20.6463 18.2887 20.7877 18.1263 20.9207C17.9261 21.0845 17.7182 21.2366 17.5006 21.3632C17.0781 21.6068 16.6255 21.7706 16.142 21.8344C16.0008 21.8536 15.8538 21.8653 15.7059 21.8653C15.5173 21.8653 15.3346 21.844 15.1586 21.8195C14.707 21.7472 14.2931 21.5802 13.9102 21.36C13.6878 21.2313 13.4741 21.0835 13.2739 20.9196C13.1114 20.7846 12.9548 20.6431 12.8078 20.4942C11.4801 19.1273 10.723 17.1159 10.4503 16.2915L10.3633 16.0405ZM16.9514 27.1082L16.1884 23.8076L17.2125 22.8417L17.0606 22.6981C17.7172 22.4801 18.3139 22.111 18.8535 21.6408C19.4878 21.8131 20.0999 22.0376 20.6869 22.3078L16.9514 27.1082ZM14.2515 22.6715L14.0697 22.8417L15.0928 23.8076L14.3502 27.0167L10.6205 22.3556C11.2355 22.0674 11.8776 21.8259 12.5448 21.643C13.0467 22.0865 13.6123 22.4482 14.2515 22.6715ZM3.31194 23.6097V23.0779V22.546H5.23625V20.4293H5.71975H6.20325V22.546H8.12756V22.6396V23.0779V23.2672V23.6097H7.71272H6.9517H6.20325V24.382V25.1425V25.7286H5.75166H5.71975H5.23625V25.5871V23.6129L3.31194 23.6097Z" fill="black"/>
</g>
<defs>
<clipPath id="clip0">
<rect width="30" height="33" fill="white"/>
</clipPath>
</defs>
</svg>
