<svg width="30" height="34" viewBox="0 0 30 34" fill="none" xmlns="http://www.w3.org/2000/svg">
<g clip-path="url(#clip0)">
<path d="M15 0.409088C6.71582 0.409088 0 7.82702 0 16.9773C0 26.1275 6.71582 33.5455 15 33.5455C23.2842 33.5455 30 26.1275 30 16.9773C29.9907 7.83133 23.2803 0.419335 15 0.409088ZM27.9729 22.7815L23.707 23.5946C24.1953 21.6166 24.459 19.5793 24.4919 17.5295H28.9875C28.9312 19.3325 28.5876 21.1104 27.9729 22.7815ZM1.01245 17.5295H5.50806C5.54102 19.5793 5.80469 21.6166 6.29297 23.5946L2.0271 22.7815C1.41235 21.1104 1.06885 19.3325 1.01245 17.5295ZM2.0271 11.173L6.29297 10.36C5.80469 12.338 5.54102 14.3753 5.50806 16.425H1.01245C1.06885 14.622 1.41235 12.8441 2.0271 11.173ZM15.5 9.27646C17.2966 9.30181 19.0889 9.48249 20.8601 9.81714L22.625 10.1534C23.1672 12.1915 23.459 14.3009 23.4924 16.425H15.5V9.27646ZM21.0305 8.72851C19.2031 8.3836 17.3538 8.19727 15.5 8.17192V1.54465C18.3665 1.84883 20.8564 4.74772 22.2676 8.96662L21.0305 8.72851ZM14.5 8.17192C12.6462 8.19727 10.7974 8.3836 8.96997 8.72851L7.73242 8.965C9.14355 4.74502 11.6335 1.84505 14.5 1.54222V8.17192ZM9.14038 9.81714C10.9114 9.48249 12.7034 9.30181 14.5 9.27646V16.425H6.50757C6.54102 14.3009 6.83276 12.1915 7.375 10.1534L9.14038 9.81714ZM6.50757 17.5295H14.5V24.6781C12.7034 24.6527 10.9111 24.4721 9.13989 24.1374L7.375 23.8011C6.83276 21.763 6.54102 19.6537 6.50757 17.5295ZM8.96948 25.226C10.7969 25.5715 12.646 25.7586 14.5 25.7856V32.4129C11.6335 32.1084 9.14355 29.2095 7.73242 24.9906L8.96948 25.226ZM15.5 25.7856C17.3538 25.7586 19.2026 25.5715 21.03 25.226L22.2676 24.9895C20.8564 29.2095 18.3665 32.1095 15.5 32.4123V25.7856ZM20.8596 24.1374C19.0886 24.4721 17.2966 24.6527 15.5 24.6781V17.5295H23.4924C23.459 19.6537 23.1672 21.763 22.625 23.8011L20.8596 24.1374ZM24.4919 16.425C24.459 14.3753 24.1953 12.338 23.707 10.36L27.9729 11.173C28.5876 12.8441 28.9312 14.622 28.9875 16.425H24.4919ZM27.467 9.95575L23.3779 9.17642C22.6428 6.5275 21.2676 4.15014 19.3999 2.30051C22.8923 3.58789 25.7886 6.33604 27.467 9.95575ZM10.6001 2.30051C8.73242 4.15014 7.35718 6.5275 6.62207 9.17642L2.53296 9.95575C4.21143 6.33604 7.10767 3.58789 10.6001 2.30051ZM2.53296 23.9988L6.62207 24.7781C7.35718 27.427 8.73242 29.8044 10.6001 31.654C7.10767 30.3666 4.21143 27.6185 2.53296 23.9988ZM19.3999 31.654C21.2676 29.8044 22.6428 27.427 23.3779 24.7781L27.467 23.9988C25.7886 27.6185 22.8923 30.3666 19.3999 31.654Z" fill="black"/>
</g>
<defs>
<clipPath id="clip0">
<rect width="30" height="33.1364" fill="white" transform="translate(0 0.409088)"/>
</clipPath>
</defs>
</svg>
