<svg width="30" height="34" viewBox="0 0 30 34" fill="none" xmlns="http://www.w3.org/2000/svg">
<path d="M27.8915 4.82727H2.1085C0.946 4.82727 0 5.87217 0 7.1562V26.7983C0 28.0824 0.946 29.1273 2.1085 29.1273H27.8915C29.054 29.1273 30 28.0824 30 26.7983V7.1562C30 5.87217 29.054 4.82727 27.8915 4.82727ZM29 26.7983C29 27.4732 28.503 28.0227 27.8915 28.0227H2.1085C1.497 28.0227 1 27.4732 1 26.7983V7.1562C1 6.48133 1.497 5.93182 2.1085 5.93182H27.8915C28.503 5.93182 29 6.48133 29 7.1562V26.7983Z" fill="black"/>
<path d="M8 20.8432H3.5C3.2235 20.8432 3 21.0906 3 21.3954C3 21.7003 3.2235 21.9477 3.5 21.9477H8C8.2765 21.9477 8.5 21.7003 8.5 21.3954C8.5 21.0906 8.2765 20.8432 8 20.8432Z" fill="black"/>
<path d="M14.5 20.8432H10C9.7235 20.8432 9.5 21.0906 9.5 21.3954C9.5 21.7003 9.7235 21.9477 10 21.9477H14.5C14.7765 21.9477 15 21.7003 15 21.3954C15 21.0906 14.7765 20.8432 14.5 20.8432Z" fill="black"/>
<path d="M4 23.6045H3.5C3.2235 23.6045 3 23.852 3 24.1568C3 24.4617 3.2235 24.7091 3.5 24.7091H4C4.2765 24.7091 4.5 24.4617 4.5 24.1568C4.5 23.852 4.2765 23.6045 4 23.6045Z" fill="black"/>
<path d="M7 23.6045H6C5.7235 23.6045 5.5 23.852 5.5 24.1568C5.5 24.4617 5.7235 24.7091 6 24.7091H7C7.2765 24.7091 7.5 24.4617 7.5 24.1568C7.5 23.852 7.2765 23.6045 7 23.6045Z" fill="black"/>
<path d="M9.5 23.6045H9C8.7235 23.6045 8.5 23.852 8.5 24.1568C8.5 24.4617 8.7235 24.7091 9 24.7091H9.5C9.7765 24.7091 10 24.4617 10 24.1568C10 23.852 9.7765 23.6045 9.5 23.6045Z" fill="black"/>
<path d="M12.5 23.6045H11.5C11.2235 23.6045 11 23.852 11 24.1568C11 24.4617 11.2235 24.7091 11.5 24.7091H12.5C12.7765 24.7091 13 24.4617 13 24.1568C13 23.852 12.7765 23.6045 12.5 23.6045Z" fill="black"/>
<path d="M14.145 23.7647C14.0545 23.8696 14 24.0132 14 24.1568C14 24.3004 14.0545 24.444 14.145 24.5489C14.2395 24.6483 14.37 24.7091 14.5 24.7091C14.63 24.7091 14.76 24.6483 14.855 24.5489C14.945 24.444 15 24.3004 15 24.1568C15 24.0132 14.945 23.8696 14.855 23.7647C14.665 23.5604 14.3245 23.5604 14.145 23.7647Z" fill="black"/>
<path d="M24 18.6341C23.362 18.6341 22.7655 18.8268 22.25 19.1571C21.7345 18.8268 21.138 18.6341 20.5 18.6341C18.5705 18.6341 17 20.3682 17 22.5C17 24.6318 18.5705 26.3659 20.5 26.3659C21.138 26.3659 21.7345 26.1732 22.25 25.8429C22.7655 26.1732 23.362 26.3659 24 26.3659C25.9295 26.3659 27.5 24.6318 27.5 22.5C27.5 20.3682 25.9295 18.6341 24 18.6341ZM23 22.5C23 23.2699 22.712 23.9657 22.25 24.4672C21.788 23.9657 21.5 23.2699 21.5 22.5C21.5 21.7301 21.788 21.0343 22.25 20.5328C22.712 21.0343 23 21.7301 23 22.5ZM18 22.5C18 20.9774 19.1215 19.7386 20.5 19.7386C20.8155 19.7386 21.115 19.8104 21.3935 19.9292C20.84 20.6129 20.5 21.5125 20.5 22.5C20.5 23.4875 20.84 24.3871 21.3935 25.0708C21.115 25.1896 20.8155 25.2614 20.5 25.2614C19.1215 25.2614 18 24.0226 18 22.5ZM24 25.2614C23.6845 25.2614 23.385 25.1896 23.1065 25.0708C23.66 24.3871 24 23.4875 24 22.5C24 21.5125 23.66 20.6129 23.1065 19.9292C23.385 19.8104 23.6845 19.7386 24 19.7386C25.3785 19.7386 26.5 20.9774 26.5 22.5C26.5 24.0226 25.3785 25.2614 24 25.2614Z" fill="black"/>
<path d="M4.1275 16.9773H7.1275H7.8725H10.8725C11.494 16.9773 12 16.4184 12 15.7319V11.3137V10.4908C12 9.80435 11.494 9.24545 10.8725 9.24545H7.1275H4.1275C3.506 9.24545 3 9.80435 3 10.4908V15.7319C3 16.4184 3.506 16.9773 4.1275 16.9773ZM6 13.6636H4V12.5591H6V13.6636ZM4 15.7319V14.7682H6V15.7319C6 15.7799 6.008 15.8258 6.013 15.8727H4.1275C4.057 15.8727 4 15.8098 4 15.7319ZM11 13.6636H9V12.6999C9 12.622 9.057 12.5591 9.1275 12.5591H10.8725C10.916 12.5591 10.9575 12.5503 11 12.5447V13.6636ZM10.8725 15.8727H8.987C8.992 15.8258 9 15.7799 9 15.7319V14.7682H11V15.7319C11 15.8098 10.943 15.8727 10.8725 15.8727ZM10.8725 10.35C10.943 10.35 11 10.413 11 10.4908V11.3137C11 11.3916 10.943 11.4545 10.8725 11.4545H9.1275C8.506 11.4545 8 12.0134 8 12.6999V15.7319C8 15.8098 7.943 15.8727 7.8725 15.8727H7.1275C7.057 15.8727 7 15.8098 7 15.7319V10.4908C7 10.413 7.057 10.35 7.1275 10.35H10.8725ZM4.1275 10.35H6.013C6.008 10.3969 6 10.4428 6 10.4908V11.4545H4V10.4908C4 10.413 4.057 10.35 4.1275 10.35Z" fill="black"/>
</svg>
