<svg width="30" height="34" viewBox="0 0 30 34" fill="none" xmlns="http://www.w3.org/2000/svg">
<path d="M27.6684 13.3949C28.2116 12.7948 28.4034 11.9141 28.169 11.0964C27.9346 10.2788 27.3226 9.69406 26.5719 9.57047L20.0077 8.48945C19.8788 8.46826 19.7675 8.37656 19.7098 8.24414L16.7742 1.50291C16.4385 0.731936 15.7587 0.253014 15.0001 0.253014C14.2415 0.253014 13.5617 0.731936 13.226 1.50291L10.2904 8.24421C10.2327 8.37656 10.1213 8.46826 9.99243 8.48951L3.42829 9.57047C2.67759 9.69406 2.06569 10.2788 1.8312 11.0964C1.59671 11.9141 1.78854 12.7948 2.33182 13.3949L7.08173 18.6423C7.17495 18.7454 7.21755 18.8938 7.19552 19.0393L6.07421 26.4486C5.946 27.296 6.24753 28.1363 6.86124 28.6416C7.47495 29.1471 8.27346 29.2124 8.94483 28.8124L14.816 25.3142C14.9313 25.2455 15.0689 25.2455 15.1843 25.3142L21.0555 28.8124C21.3475 28.9864 21.6635 29.0724 21.978 29.0723C22.3864 29.0723 22.7922 28.9273 23.1389 28.6416C23.7526 28.1361 24.0542 27.2958 23.926 26.4486L22.8047 19.0392C22.7827 18.8937 22.8252 18.7453 22.9184 18.6422L27.6684 13.3949ZM21.2448 19.3426L22.3661 26.752C22.4036 27 22.2686 27.1414 22.2088 27.1906C22.1489 27.2397 21.9884 27.3418 21.792 27.2246L15.9208 23.7264C15.6326 23.5548 15.3164 23.4688 15.0002 23.4688C14.684 23.4688 14.3677 23.5548 14.0796 23.7264L8.20843 27.2245C8.0119 27.3416 7.85153 27.2397 7.79171 27.1904C7.73188 27.1412 7.59677 26.9999 7.63432 26.7519L8.75563 19.3426C8.86573 18.6151 8.65309 17.8732 8.18663 17.3579L3.43673 12.1106C3.27776 11.9349 3.31374 11.7305 3.33665 11.6508C3.35944 11.5711 3.43637 11.3818 3.65604 11.3456L10.2201 10.2646C10.8646 10.1585 11.4215 9.70003 11.7098 9.03803L14.6454 2.29673C14.7437 2.07115 14.9263 2.04678 15.0003 2.04678C15.0741 2.04678 15.2567 2.07108 15.355 2.29673V2.2968L18.2907 9.0381C18.5789 9.7001 19.1357 10.1586 19.7802 10.2647L26.3444 11.3457C26.5641 11.3818 26.641 11.5712 26.6638 11.6509C26.6867 11.7307 26.7227 11.9351 26.5637 12.1106L21.8138 17.358C21.3474 17.8732 21.1347 18.6151 21.2448 19.3426Z" fill="black"/>
<path d="M24.2451 1.50243C23.8914 1.21131 23.3966 1.30016 23.1397 1.70085L22.2997 3.01118C22.0428 3.41188 22.1212 3.97281 22.4748 4.26393C22.6153 4.37955 22.778 4.43526 22.9393 4.43526C23.184 4.43526 23.4253 4.30703 23.5801 4.06558L24.4202 2.75525C24.6771 2.35449 24.5987 1.79356 24.2451 1.50243Z" fill="black"/>
<path d="M7.69686 3.00589L6.8568 1.69556C6.59998 1.295 6.1051 1.20615 5.75142 1.49714C5.39787 1.78826 5.31947 2.3492 5.57634 2.74989L6.41641 4.06022C6.57127 4.30187 6.81256 4.43004 7.05736 4.43004C7.21867 4.43004 7.38145 4.37432 7.52184 4.25864C7.87539 3.96758 7.95379 3.40665 7.69686 3.00589Z" fill="black"/>
<path d="M2.90361 20.3754C2.76855 19.9043 2.32212 19.6465 1.9064 19.7996L0.547203 20.3001C0.13148 20.4532 -0.0959225 20.9593 0.0391361 21.4303C0.147769 21.8094 0.458023 22.0503 0.791597 22.0503C0.872632 22.0503 0.955074 22.0361 1.03634 22.0061L2.39554 21.5055C2.81121 21.3525 3.03867 20.8465 2.90361 20.3754Z" fill="black"/>
<path d="M15.0003 30.3334C14.5632 30.3334 14.2089 30.735 14.2089 31.2303V32.8501C14.2089 33.3454 14.5632 33.747 15.0003 33.747C15.4373 33.747 15.7917 33.3454 15.7917 32.8501V31.2303C15.7917 30.7349 15.4374 30.3334 15.0003 30.3334Z" fill="black"/>
<path d="M29.453 20.3014L28.0938 19.8008C27.6782 19.6479 27.2316 19.9055 27.0966 20.3767C26.9615 20.8478 27.1889 21.3538 27.6046 21.5069L28.9638 22.0074C29.0451 22.0373 29.1275 22.0515 29.2085 22.0515C29.5422 22.0515 29.8524 21.8105 29.9611 21.4315C30.0961 20.9604 29.8686 20.4545 29.453 20.3014Z" fill="black"/>
</svg>
