<svg width="30" height="33" viewBox="0 0 30 33" fill="none" xmlns="http://www.w3.org/2000/svg">
<path d="M25.7143 12.6991C25.7143 6.15803 20.9196 0.883926 15 0.883926C9.08036 0.883926 4.28571 6.15803 4.28571 12.6696C4.28571 12.6696 4.28571 12.6696 4.28571 12.6991C1.90179 12.8464 0 15.0268 0 17.6786V18.2679C0 21.0375 2.03571 23.2768 4.55357 23.2768H4.79464L6.69643 26.6062C8.03571 28.9634 10.3125 30.3482 12.8304 30.3482H13.2054C13.4464 31.35 14.2768 32.1161 15.2679 32.1161C16.4464 32.1161 17.4107 31.0554 17.4107 29.7589C17.4107 28.4625 16.4464 27.4018 15.2679 27.4018C14.2768 27.4018 13.4464 28.1679 13.2054 29.1696H12.8304C10.6875 29.1696 8.73214 27.9616 7.60714 25.958L6.05357 23.2768H6.42857C7.01786 23.2768 7.5 22.7464 7.5 22.0982V13.8482C7.5 13.2 7.01786 12.6696 6.42857 12.6696H5.35714C5.35714 6.80625 9.66964 2.0625 15 2.0625C20.3304 2.0625 24.6429 6.80625 24.6429 12.6696H23.5714C22.9821 12.6696 22.5 13.2 22.5 13.8482V22.0982C22.5 22.7464 22.9821 23.2768 23.5714 23.2768H25.4464C27.9643 23.2768 30 21.0375 30 18.2679V17.6786C30 15.0268 28.0982 12.8464 25.7143 12.6991ZM15.2679 28.5804C15.8571 28.5804 16.3393 29.1107 16.3393 29.7589C16.3393 30.4071 15.8571 30.9375 15.2679 30.9375C14.6786 30.9375 14.1964 30.4071 14.1964 29.7589C14.1964 29.1107 14.6786 28.5804 15.2679 28.5804ZM6.42857 13.8482V22.0982H4.55357C2.625 22.0982 1.07143 20.3893 1.07143 18.2679V17.6786C1.07143 15.5571 2.625 13.8482 4.55357 13.8482H6.42857ZM28.9286 18.2679C28.9286 20.3893 27.375 22.0982 25.4464 22.0982H23.5714V13.8482H25.4464C27.375 13.8482 28.9286 15.5571 28.9286 17.6786V18.2679Z" fill="black"/>
<path d="M19.4465 5.33305C19.3929 5.30359 19.3126 5.24466 19.2322 5.18573C19.1518 5.1268 19.0715 5.06787 19.0179 5.03841C18.7768 4.86162 18.4286 4.95001 18.2947 5.24466C18.1608 5.5393 18.2143 5.86341 18.4822 6.04019C18.5358 6.06966 18.6161 6.12858 18.6965 6.18751C18.7768 6.24644 18.8572 6.30537 18.9376 6.33483C19.0179 6.39376 19.1251 6.42323 19.2054 6.42323C19.3929 6.42323 19.5536 6.33483 19.6608 6.12858C19.7947 5.86341 19.7143 5.50984 19.4465 5.33305Z" fill="black"/>
<path d="M15 3.83035C12.7232 3.83035 10.5804 4.92053 9.10714 6.80625C8.91964 7.04196 8.94642 7.425 9.16071 7.63125C9.26785 7.71964 9.37499 7.77857 9.50892 7.77857C9.66964 7.77857 9.80357 7.71964 9.91071 7.57232C11.1964 5.95178 13.0446 5.00892 15 5.00892C15.4821 5.00892 15.9643 5.06785 16.4464 5.18571C16.7411 5.24464 17.0089 5.03839 17.0893 4.74375C17.1696 4.4491 16.9553 4.125 16.6875 4.0366C16.125 3.88928 15.5625 3.83035 15 3.83035Z" fill="black"/>
</svg>
